<svg id="Layer_1" data-name="Layer 1" xmlns="http://www.w3.org/2000/svg" viewBox="0 0 600 200"><defs><style>.cls-1,.cls-5{fill:#fbb536;}.cls-2{fill:#d11149;}.cls-3,.cls-4{fill:#36bff4;}.cls-3,.cls-5{stroke:#000;stroke-miterlimit:10;}</style></defs><title>freddie_logo</title><rect class="cls-1" x="72.5" y="47.5" width="20" height="99"/><path d="M92,48v98H73V48H92m1-1H72V147H93V47Z"/><polygon class="cls-2" points="181.33 146.5 159.73 97.42 184.71 94.54 210.2 146.5 181.33 146.5"/><path d="M184.41,95.07l25,50.93H181.65L160.46,97.84l23.95-2.77M185,94l-26,3,22,50h30L185,94Z"/><path class="cls-3" d="M192.47,47.5h-33v50h43v-40A10,10,0,0,0,192.47,47.5Z"/><rect class="cls-2" x="238.5" y="85.5" width="39" height="24"/><path d="M277,86v23H239V86h38m1-1H238v25h40V85Z"/><rect class="cls-4" x="324.5" y="56.5" width="19" height="69"/><path d="M343,57v68H325V57h18m1-1H324v70h20V56Z"/><polygon class="cls-2" points="304.5 71.5 304.5 47.5 334.98 47.5 343.5 55.22 343.5 71.5 304.5 71.5"/><path d="M334.78,48,343,55.44V71H305V48h29.78M344,47H304V72h40V47Zm0,8-8.83-8H344v8Z"/><polygon class="cls-2" points="92.5 109.5 92.5 85.5 131.5 85.5 131.5 101.78 122.98 109.5 92.5 109.5"/><path d="M131,86v15.56L122.78,109H93V86h38m1-1H92v25h31.17l8.83-8V85Zm0,25h0Z"/><polygon class="cls-2" points="92.5 71.5 92.5 47.5 122.98 47.5 131.5 55.22 131.5 71.5 92.5 71.5"/><path d="M122.78,48,131,55.44V71H93V48h29.78M132,47H92V72h40V47Zm0,8-8.83-8H132v8Z"/><polygon class="cls-4" points="238.5 71.5 238.5 47.5 268.98 47.5 277.5 55.22 277.5 71.5 238.5 71.5"/><path d="M268.78,48,277,55.44V71H239V48h29.78M278,47H238V72h40V47Zm0,8-8.83-8H278v8Z"/><polygon class="cls-4" points="238.5 146.5 238.5 122.5 277.5 122.5 277.5 138.78 268.98 146.5 238.5 146.5"/><path d="M277,123v15.56L268.78,146H239V123h38m1-1H238v25h31.17l8.83-8V122Zm0,25h0Z"/><polygon class="cls-2" points="304.5 146.5 304.5 122.5 343.5 122.5 343.5 138.78 334.98 146.5 304.5 146.5"/><path d="M343,123v15.56L334.78,146H305V123h38m1-1H304v25h31.17l8.83-8V122Zm0,25h0Z"/><path class="cls-1" d="M428.34,147.07a.46.46,0,0,1-.48-.39L417.51,98a.48.48,0,0,1,.09-.41.5.5,0,0,1,.38-.19l.13,0,7.7,2,7.73-42.11a.48.48,0,0,1,.49-.4.47.47,0,0,1,.48.4l10,51.31a.52.52,0,0,1-.49.59h0l-.12,0-8-2-7,39.56A.48.48,0,0,1,428.34,147.07Z"/><path d="M434,57.36l10,51.3-7.48-1.9-1-.26-.18,1-6.94,39L418,97.89l7.18,1.83,1,.27.2-1L434,57.36h0m0-1a1,1,0,0,0-1,.81l-7.64,41.58-7.17-1.83a1.18,1.18,0,0,0-.25,0,1,1,0,0,0-1,1.21l10.35,48.7a1,1,0,0,0,1.95,0l6.95-39,7.49,1.89a.69.69,0,0,0,.25,0,1,1,0,0,0,1-1.19L435,57.16a1,1,0,0,0-1-.8Z"/><path class="cls-2" d="M433.68,62.84a7.67,7.67,0,1,1,7.51-7.67A7.6,7.6,0,0,1,433.68,62.84Z"/><path d="M433.68,48a7.17,7.17,0,1,1-7,7.17,7.1,7.1,0,0,1,7-7.17m0-1a8.17,8.17,0,1,0,8,8.17,8.1,8.1,0,0,0-8-8.17Z"/><rect class="cls-1" x="139.5" y="47.5" width="20" height="99"/><path d="M159,48v98H140V48h19m1-1H139V147h21V47Z"/><rect class="cls-1" x="218.5" y="47.5" width="20" height="99"/><path d="M238,48v98H219V48h19m1-1H218V147h21V47Z"/><rect class="cls-2" x="472.5" y="85.5" width="39" height="24"/><path d="M511,86v23H473V86h38m1-1H472v25h40V85Z"/><polygon class="cls-4" points="472.5 71.5 472.5 47.5 502.98 47.5 511.5 55.22 511.5 71.5 472.5 71.5"/><path d="M502.78,48,511,55.44V71H473V48h29.78M512,47H472V72h40V47Zm0,8-8.83-8H512v8Z"/><polygon class="cls-4" points="472.5 146.5 472.5 122.5 511.5 122.5 511.5 138.78 502.98 146.5 472.5 146.5"/><path d="M511,123v15.56L502.78,146H473V123h38m1-1H472v25h31.17l8.83-8V122Zm0,25h0Z"/><rect class="cls-1" x="452.5" y="47.5" width="20" height="99"/><path d="M472,48v98H453V48h19m1-1H452V147h21V47Z"/><rect class="cls-1" x="285.5" y="47.5" width="20" height="99"/><path d="M305,48v98H286V48h19m1-1H285V147h21V47Z"/><rect class="cls-4" x="390.5" y="56.5" width="19" height="69"/><path d="M409,57v68H391V57h18m1-1H390v70h20V56Z"/><polygon class="cls-2" points="370.5 71.5 370.5 47.5 400.98 47.5 409.5 55.22 409.5 71.5 370.5 71.5"/><path d="M400.78,48,409,55.44V71H371V48h29.78M410,47H370V72h40V47Zm0,8-8.83-8H410v8Z"/><polygon class="cls-2" points="370.5 146.5 370.5 122.5 409.5 122.5 409.5 138.78 400.98 146.5 370.5 146.5"/><path d="M409,123v15.56L400.78,146H371V123h38m1-1H370v25h31.17l8.83-8V122Zm0,25h0Z"/><rect class="cls-1" x="351.5" y="47.5" width="20" height="99"/><path d="M371,48v98H352V48h19m1-1H351V147h21V47Z"/><rect class="cls-5" x="171" y="62" width="21" height="21" rx="7.33"/></svg>