<svg xmlns="http://www.w3.org/2000/svg" viewBox="0 0 440 100.57"><defs><style>.cls-1,.cls-5{fill:#fbb536;}.cls-2{fill:#d11149;}.cls-3,.cls-4{fill:#36bff4;}.cls-3,.cls-5{stroke:#000;stroke-miterlimit:10;}</style></defs><title>logo</title><g id="Layer_2" data-name="Layer 2"><g id="Layer_1-2" data-name="Layer 1"><rect class="cls-1" x="0.5" y="0.5" width="20" height="99"/><path d="M20,1V99H1V1H20m1-1H0V100H21V0Z"/><polygon class="cls-2" points="109.33 99.5 87.73 50.42 112.71 47.54 138.2 99.5 109.33 99.5"/><path d="M112.41,48.07,137.4,99H109.65L88.46,50.84l24-2.77M113,47,87,50l22,50h30L113,47Z"/><path class="cls-3" d="M120.47.5h-33v50h43v-40A10,10,0,0,0,120.47.5Z"/><rect class="cls-2" x="166.5" y="38.5" width="39" height="24"/><path d="M205,39V62H167V39h38m1-1H166V63h40V38Z"/><rect class="cls-4" x="252.5" y="9.5" width="19" height="69"/><path d="M271,10V78H253V10h18m1-1H252V79h20V9Z"/><polygon class="cls-2" points="232.5 24.5 232.5 0.5 262.98 0.5 271.5 8.22 271.5 24.5 232.5 24.5"/><path d="M262.78,1,271,8.44V24H233V1h29.78M272,0H232V25h40V0Zm0,8-8.83-8H272V8Z"/><polygon class="cls-2" points="20.5 62.5 20.5 38.5 59.5 38.5 59.5 54.78 50.98 62.5 20.5 62.5"/><path d="M59,39V54.56L50.78,62H21V39H59m1-1H20V63H51.17L60,55V38Zm0,25h0Z"/><polygon class="cls-2" points="20.5 24.5 20.5 0.5 50.98 0.5 59.5 8.22 59.5 24.5 20.5 24.5"/><path d="M50.78,1,59,8.44V24H21V1H50.78M60,0H20V25H60V0Zm0,8L51.17,0H60V8Z"/><polygon class="cls-4" points="166.5 24.5 166.5 0.5 196.98 0.5 205.5 8.22 205.5 24.5 166.5 24.5"/><path d="M196.78,1,205,8.44V24H167V1h29.78M206,0H166V25h40V0Zm0,8-8.83-8H206V8Z"/><polygon class="cls-4" points="166.5 99.5 166.5 75.5 205.5 75.5 205.5 91.78 196.98 99.5 166.5 99.5"/><path d="M205,76V91.56L196.78,99H167V76h38m1-1H166v25h31.17L206,92V75Zm0,25h0Z"/><polygon class="cls-2" points="232.5 99.5 232.5 75.5 271.5 75.5 271.5 91.78 262.98 99.5 232.5 99.5"/><path d="M271,76V91.56L262.78,99H233V76h38m1-1H232v25h31.17L272,92V75Zm0,25h0Z"/><path class="cls-1" d="M356.34,100.07a.46.46,0,0,1-.48-.39L345.51,51a.48.48,0,0,1,.09-.41.5.5,0,0,1,.38-.19l.13,0,7.7,2,7.73-42.11a.48.48,0,0,1,.49-.4.47.47,0,0,1,.48.4l10,51.31a.52.52,0,0,1-.49.59h0l-.12,0-8-2-7,39.56A.48.48,0,0,1,356.34,100.07Z"/><path d="M362,10.36l10,51.3-7.48-1.9-1-.26-.18,1-6.94,39L346,50.89l7.18,1.83,1,.27.2-1.05L362,10.36h0m0-1a1,1,0,0,0-1,.81l-7.64,41.58-7.17-1.83a1.18,1.18,0,0,0-.25,0,1,1,0,0,0-1,1.21l10.35,48.7a1,1,0,0,0,1.95,0l6.95-39,7.49,1.89a.69.69,0,0,0,.25,0,1,1,0,0,0,1-1.19L363,10.16a1,1,0,0,0-1-.8Z"/><path class="cls-2" d="M361.68,15.84a7.6,7.6,0,0,1-7.52-7.67,7.52,7.52,0,1,1,15,0A7.6,7.6,0,0,1,361.68,15.84Z"/><path d="M361.68,1a7.1,7.1,0,0,1,7,7.17,7,7,0,1,1-14,0,7.11,7.11,0,0,1,7-7.17m0-1a8.1,8.1,0,0,0-8,8.17,8,8,0,1,0,16,0,8.09,8.09,0,0,0-8-8.17Z"/><rect class="cls-1" x="67.5" y="0.5" width="20" height="99"/><path d="M87,1V99H68V1H87m1-1H67V100H88V0Z"/><rect class="cls-1" x="146.5" y="0.5" width="20" height="99"/><path d="M166,1V99H147V1h19m1-1H146V100h21V0Z"/><rect class="cls-2" x="400.5" y="38.5" width="39" height="24"/><path d="M439,39V62H401V39h38m1-1H400V63h40V38Z"/><polygon class="cls-4" points="400.5 24.5 400.5 0.5 430.98 0.5 439.5 8.22 439.5 24.5 400.5 24.5"/><path d="M430.78,1,439,8.44V24H401V1h29.78M440,0H400V25h40V0Zm0,8-8.83-8H440V8Z"/><polygon class="cls-4" points="400.5 99.5 400.5 75.5 439.5 75.5 439.5 91.78 430.98 99.5 400.5 99.5"/><path d="M439,76V91.56L430.78,99H401V76h38m1-1H400v25h31.17L440,92V75Zm0,25h0Z"/><rect class="cls-1" x="380.5" y="0.5" width="20" height="99"/><path d="M400,1V99H381V1h19m1-1H380V100h21V0Z"/><rect class="cls-1" x="213.5" y="0.5" width="20" height="99"/><path d="M233,1V99H214V1h19m1-1H213V100h21V0Z"/><rect class="cls-4" x="318.5" y="9.5" width="19" height="69"/><path d="M337,10V78H319V10h18m1-1H318V79h20V9Z"/><polygon class="cls-2" points="298.5 24.5 298.5 0.5 328.98 0.5 337.5 8.22 337.5 24.5 298.5 24.5"/><path d="M328.78,1,337,8.44V24H299V1h29.78M338,0H298V25h40V0Zm0,8-8.83-8H338V8Z"/><polygon class="cls-2" points="298.5 99.5 298.5 75.5 337.5 75.5 337.5 91.78 328.98 99.5 298.5 99.5"/><path d="M337,76V91.56L328.78,99H299V76h38m1-1H298v25h31.17L338,92V75Zm0,25h0Z"/><rect class="cls-1" x="279.5" y="0.5" width="20" height="99"/><path d="M299,1V99H280V1h19m1-1H279V100h21V0Z"/><rect class="cls-5" x="99" y="15" width="21" height="21" rx="7.33"/></g></g></svg>